<?xml version="1.0" encoding="UTF-8" standalone="no"?>
<!-- Generator: Adobe Illustrator 16.0.0, SVG Export Plug-In . SVG Version: 6.00 Build 0)  -->

<svg
   xmlns:dc="http://purl.org/dc/elements/1.1/"
   xmlns:cc="http://creativecommons.org/ns#"
   xmlns:rdf="http://www.w3.org/1999/02/22-rdf-syntax-ns#"
   xmlns:svg="http://www.w3.org/2000/svg"
   xmlns="http://www.w3.org/2000/svg"
   xmlns:sodipodi="http://sodipodi.sourceforge.net/DTD/sodipodi-0.dtd"
   xmlns:inkscape="http://www.inkscape.org/namespaces/inkscape"
   version="1.1"
   id="Capa_1"
   x="0px"
   y="0px"
   width="512px"
   height="512px"
   viewBox="0 0 430.117 430.117"
   style="enable-background:new 0 0 430.117 430.117;"
   xml:space="preserve"
   sodipodi:docname="linkedin3.svg"
   inkscape:version="0.92.0 r15299"><metadata
     id="metadata48"><rdf:RDF><cc:Work
         rdf:about=""><dc:format>image/svg+xml</dc:format><dc:type
           rdf:resource="http://purl.org/dc/dcmitype/StillImage" /><dc:title></dc:title></cc:Work></rdf:RDF></metadata><defs
     id="defs46" /><sodipodi:namedview
     pagecolor="#ffffff"
     bordercolor="#666666"
     borderopacity="1"
     objecttolerance="10"
     gridtolerance="10"
     guidetolerance="10"
     inkscape:pageopacity="0"
     inkscape:pageshadow="2"
     inkscape:window-width="1920"
     inkscape:window-height="1028"
     id="namedview44"
     showgrid="false"
     inkscape:zoom="1.1890995"
     inkscape:cx="470.64008"
     inkscape:cy="188.58433"
     inkscape:window-x="1592"
     inkscape:window-y="-8"
     inkscape:window-maximized="1"
     inkscape:current-layer="Capa_1" /><g
     id="g11"
     style="fill:#705c4f;opacity:1;stroke:none;fill-opacity:1"><path
       id="LinkedIn"
       d="M430.117,261.543V420.56h-92.188V272.193c0-37.271-13.334-62.707-46.703-62.707   c-25.473,0-40.632,17.142-47.301,33.724c-2.432,5.928-3.058,14.179-3.058,22.477V420.56h-92.219c0,0,1.242-251.285,0-277.32h92.21   v39.309c-0.187,0.294-0.43,0.611-0.606,0.896h0.606v-0.896c12.251-18.869,34.13-45.824,83.102-45.824   C384.633,136.724,430.117,176.361,430.117,261.543z M52.183,9.558C20.635,9.558,0,30.251,0,57.463   c0,26.619,20.038,47.94,50.959,47.94h0.616c32.159,0,52.159-21.317,52.159-47.94C103.128,30.251,83.734,9.558,52.183,9.558z    M5.477,420.56h92.184v-277.32H5.477V420.56z"
       fill="#FFFFFF"
       style="fill:#705c4f;stroke:none;fill-opacity:1" /></g><g
     id="g13"
     style="fill:#c8b7b7" /><g
     id="g15"
     style="fill:#c8b7b7" /><g
     id="g17"
     style="fill:#c8b7b7" /><g
     id="g19"
     style="fill:#c8b7b7" /><g
     id="g21"
     style="fill:#c8b7b7" /><g
     id="g23"
     style="fill:#c8b7b7" /><g
     id="g25"
     style="fill:#c8b7b7" /><g
     id="g27"
     style="fill:#c8b7b7" /><g
     id="g29"
     style="fill:#c8b7b7" /><g
     id="g31"
     style="fill:#c8b7b7" /><g
     id="g33"
     style="fill:#c8b7b7" /><g
     id="g35"
     style="fill:#c8b7b7" /><g
     id="g37"
     style="fill:#c8b7b7" /><g
     id="g39"
     style="fill:#c8b7b7" /><g
     id="g41"
     style="fill:#c8b7b7" /><path
     style="opacity:0;fill:#c8b7b7;fill-opacity:1;stroke-width:0.84097254"
     d="M 177.39296,335.35785 V 170.52744 l 54.45297,-2.8e-4 54.45297,-2.9e-4 v 24.03817 24.03817 l 4.12756,-6.1675 c 17.20527,-25.70855 42.06477,-42.24992 71.13948,-47.3358 16.89089,-2.95464 38.27612,-2.49075 55.17174,1.19677 34.9507,7.6281 61.56771,28.45724 77.89424,60.95614 8.12102,16.16536 14.20284,39.882 16.14224,62.9482 0.58082,6.90806 0.90538,46.47583 0.90538,110.37764 v 99.60944 h -54.6335 -54.63349 l -0.27793,-98.18354 c -0.27184,-96.02669 -0.31647,-98.34981 -2.03162,-105.7523 -5.99961,-25.89402 -18.57603,-40.70867 -38.63232,-45.50773 -7.60508,-1.81973 -21.71559,-1.82528 -28.91829,-0.0113 -16.98209,4.27673 -31.56621,16.56934 -40.27528,33.94708 -5.76953,11.51232 -5.45263,5.14942 -5.75944,115.64236 l -0.27729,99.86549 -54.42371,7e-5 -54.42371,7e-5 V 335.3579 Z"
     id="path4563"
     inkscape:connector-curvature="0"
     transform="scale(0.84007227)" /><path
     style="opacity:0;fill:#c8b7b7;fill-opacity:1;stroke-width:0.84097254"
     d="M 7.0960232,335.35748 V 170.52687 H 61.338751 115.58148 V 335.35748 500.1881 H 61.338751 7.0960232 Z"
     id="path4565"
     inkscape:connector-curvature="0"
     transform="scale(0.84007227)" /><path
     style="opacity:0;fill:#c8b7b7;fill-opacity:1;stroke-width:0.84097254"
     d="M 49.002404,124.25391 C 35.614983,121.99478 25.923736,117.0947 16.685455,107.91384 11.315506,102.57727 9.1344052,99.635442 6.368394,93.99837 -7.5534059,65.626041 3.343304,32.014296 30.717733,18.890948 42.448658,13.267123 48.094256,12.069211 62.60021,12.12596 c 10.754,0.04207 13.087958,0.3169 19.762854,2.327116 10.629733,3.201257 17.406584,7.217163 24.823926,14.710441 24.62457,24.876671 19.86816,67.930582 -9.522254,86.193173 -6.709321,4.16904 -15.814295,7.51165 -24.131883,8.85929 -6.205416,1.00542 -18.682844,1.02471 -24.530449,0.0379 z"
     id="path4567"
     inkscape:connector-curvature="0"
     transform="scale(0.84007227)" /><path
     style="opacity:0;fill:#c8b7b7;fill-opacity:1;stroke-width:0.84097254"
     d="M 7.0960232,335.35748 V 170.52687 H 61.338751 115.58148 V 335.35748 500.1881 H 61.338751 7.0960232 Z"
     id="path4569"
     inkscape:connector-curvature="0"
     transform="scale(0.84007227)" /><path
     style="opacity:0;fill:#c8b7b7;fill-opacity:1;stroke-width:0.84097254"
     d="M 177.39296,335.35785 V 170.52744 l 54.45297,-2.8e-4 54.45297,-2.9e-4 v 24.03817 24.03817 l 4.12756,-6.1675 c 17.20527,-25.70855 42.06477,-42.24992 71.13948,-47.3358 16.89089,-2.95464 38.27612,-2.49075 55.17174,1.19677 34.9507,7.6281 61.56771,28.45724 77.89424,60.95614 8.12102,16.16536 14.20284,39.882 16.14224,62.9482 0.58082,6.90806 0.90538,46.47583 0.90538,110.37764 v 99.60944 h -54.6335 -54.63349 l -0.27793,-98.18354 c -0.27184,-96.02669 -0.31647,-98.34981 -2.03162,-105.7523 -5.99961,-25.89402 -18.57603,-40.70867 -38.63232,-45.50773 -7.60508,-1.81973 -21.71559,-1.82528 -28.91829,-0.0113 -16.98209,4.27673 -31.56621,16.56934 -40.27528,33.94708 -5.76953,11.51232 -5.45263,5.14942 -5.75944,115.64236 l -0.27729,99.86549 -54.42371,7e-5 -54.42371,7e-5 V 335.3579 Z"
     id="path4571"
     inkscape:connector-curvature="0"
     transform="scale(0.84007227)" /><path
     style="opacity:0;fill:#c8b7b7;fill-opacity:1;stroke-width:0.84097254"
     d="M 177.39296,335.35785 V 170.52744 l 54.45297,-2.8e-4 54.45297,-2.9e-4 v 24.03817 24.03817 l 4.12756,-6.1675 c 17.20527,-25.70855 42.06477,-42.24992 71.13948,-47.3358 16.89089,-2.95464 38.27612,-2.49075 55.17174,1.19677 34.9507,7.6281 61.56771,28.45724 77.89424,60.95614 8.12102,16.16536 14.20284,39.882 16.14224,62.9482 0.58082,6.90806 0.90538,46.47583 0.90538,110.37764 v 99.60944 h -54.6335 -54.63349 l -0.27793,-98.18354 c -0.27184,-96.02669 -0.31647,-98.34981 -2.03162,-105.7523 -5.99961,-25.89402 -18.57603,-40.70867 -38.63232,-45.50773 -7.60508,-1.81973 -21.71559,-1.82528 -28.91829,-0.0113 -16.98209,4.27673 -31.56621,16.56934 -40.27528,33.94708 -5.76953,11.51232 -5.45263,5.14942 -5.75944,115.64236 l -0.27729,99.86549 -54.42371,7e-5 -54.42371,7e-5 V 335.3579 Z"
     id="path4573"
     inkscape:connector-curvature="0"
     transform="scale(0.84007227)" /><path
     style="opacity:0;fill:#c8b7b7;fill-opacity:1;stroke-width:0.84097254"
     d="M 62.599609 12.125 C 48.093655 12.068251 42.447722 13.2668 30.716797 18.890625 C 3.3423677 32.013973 -7.5526593 65.625718 6.3691406 93.998047 C 9.1351518 99.635119 11.315598 102.57749 16.685547 107.91406 C 25.923828 117.09492 35.614532 121.99478 49.001953 124.25391 C 54.849558 125.24072 67.327787 125.22222 73.533203 124.2168 C 81.850791 122.86916 90.954741 119.52646 97.664062 115.35742 C 127.05448 97.094831 131.81207 54.040734 107.1875 29.164062 C 99.770158 21.670784 92.993014 17.654382 82.363281 14.453125 C 75.688385 12.442909 73.353609 12.16707 62.599609 12.125 z M 7.0957031 170.52734 L 7.0957031 335.35742 L 7.0957031 500.1875 L 61.337891 500.1875 L 115.58203 500.1875 L 115.58203 335.35742 L 115.58203 170.52734 L 61.337891 170.52734 L 7.0957031 170.52734 z "
     transform="scale(0.84007227)"
     id="path4575" /><path
     style="opacity:0;fill:#c8b7b7;fill-opacity:1;stroke-width:0.84097254"
     d="M 49.002404,124.25391 C 35.614983,121.99478 25.923736,117.0947 16.685455,107.91384 11.315506,102.57727 9.1344052,99.635442 6.368394,93.99837 -7.5534059,65.626041 3.343304,32.014296 30.717733,18.890948 42.448658,13.267123 48.094256,12.069211 62.60021,12.12596 c 10.754,0.04207 13.087958,0.3169 19.762854,2.327116 10.629733,3.201257 17.406584,7.217163 24.823926,14.710441 24.62457,24.876671 19.86816,67.930582 -9.522254,86.193173 -6.709321,4.16904 -15.814295,7.51165 -24.131883,8.85929 -6.205416,1.00542 -18.682844,1.02471 -24.530449,0.0379 z"
     id="path4580"
     inkscape:connector-curvature="0"
     transform="scale(0.84007227)" /><path
     style="opacity:0;fill:#c8b7b7;fill-opacity:1;stroke-width:0.84097254"
     d="M 7.0960232,335.35748 V 170.52687 H 61.338751 115.58148 V 335.35748 500.1881 H 61.338751 7.0960232 Z"
     id="path4582"
     inkscape:connector-curvature="0"
     transform="scale(0.84007227)" /><path
     style="opacity:0;fill:#c8b7b7;fill-opacity:1;stroke-width:0.84097254"
     d="M 177.39296,335.35785 V 170.52744 l 54.45297,-2.8e-4 54.45297,-2.9e-4 v 24.03817 24.03817 l 4.12756,-6.1675 c 17.20527,-25.70855 42.06477,-42.24992 71.13948,-47.3358 16.89089,-2.95464 38.27612,-2.49075 55.17174,1.19677 34.9507,7.6281 61.56771,28.45724 77.89424,60.95614 8.12102,16.16536 14.20284,39.882 16.14224,62.9482 0.58082,6.90806 0.90538,46.47583 0.90538,110.37764 v 99.60944 h -54.6335 -54.63349 l -0.27793,-98.18354 c -0.27184,-96.02669 -0.31647,-98.34981 -2.03162,-105.7523 -5.99961,-25.89402 -18.57603,-40.70867 -38.63232,-45.50773 -7.60508,-1.81973 -21.71559,-1.82528 -28.91829,-0.0113 -16.98209,4.27673 -31.56621,16.56934 -40.27528,33.94708 -5.76953,11.51232 -5.45263,5.14942 -5.75944,115.64236 l -0.27729,99.86549 -54.42371,7e-5 -54.42371,7e-5 V 335.3579 Z"
     id="path4584"
     inkscape:connector-curvature="0"
     transform="scale(0.84007227)" /><path
     style="opacity:0;fill:#c8b7b7;fill-opacity:1;stroke-width:0.84097254"
     d="M 177.39296,335.35785 V 170.52744 l 54.45297,-2.8e-4 54.45297,-2.9e-4 v 24.03817 24.03817 l 4.12756,-6.1675 c 17.20527,-25.70855 42.06477,-42.24992 71.13948,-47.3358 16.89089,-2.95464 38.27612,-2.49075 55.17174,1.19677 34.9507,7.6281 61.56771,28.45724 77.89424,60.95614 8.12102,16.16536 14.20284,39.882 16.14224,62.9482 0.58082,6.90806 0.90538,46.47583 0.90538,110.37764 v 99.60944 h -54.6335 -54.63349 l -0.27793,-98.18354 c -0.27184,-96.02669 -0.31647,-98.34981 -2.03162,-105.7523 -5.99961,-25.89402 -18.57603,-40.70867 -38.63232,-45.50773 -7.60508,-1.81973 -21.71559,-1.82528 -28.91829,-0.0113 -16.98209,4.27673 -31.56621,16.56934 -40.27528,33.94708 -5.76953,11.51232 -5.45263,5.14942 -5.75944,115.64236 l -0.27729,99.86549 -54.42371,7e-5 -54.42371,7e-5 V 335.3579 Z"
     id="path4586"
     inkscape:connector-curvature="0"
     transform="scale(0.84007227)" /><path
     style="opacity:0;fill:#c8b7b7;fill-opacity:1;stroke-width:0.84097254"
     d="M 177.39296,335.35785 V 170.52744 l 54.45297,-2.8e-4 54.45297,-2.9e-4 v 24.03817 24.03817 l 4.12756,-6.1675 c 17.20527,-25.70855 42.06477,-42.24992 71.13948,-47.3358 16.89089,-2.95464 38.27612,-2.49075 55.17174,1.19677 34.9507,7.6281 61.56771,28.45724 77.89424,60.95614 8.12102,16.16536 14.20284,39.882 16.14224,62.9482 0.58082,6.90806 0.90538,46.47583 0.90538,110.37764 v 99.60944 h -54.6335 -54.63349 l -0.27793,-98.18354 c -0.27184,-96.02669 -0.31647,-98.34981 -2.03162,-105.7523 -5.99961,-25.89402 -18.57603,-40.70867 -38.63232,-45.50773 -7.60508,-1.81973 -21.71559,-1.82528 -28.91829,-0.0113 -16.98209,4.27673 -31.56621,16.56934 -40.27528,33.94708 -5.76953,11.51232 -5.45263,5.14942 -5.75944,115.64236 l -0.27729,99.86549 -54.42371,7e-5 -54.42371,7e-5 V 335.3579 Z"
     id="path4588"
     inkscape:connector-curvature="0"
     transform="scale(0.84007227)" /><path
     style="opacity:0;fill:#c8b7b7;fill-opacity:1;stroke-width:0.84097254"
     d="M 177.39296,335.35785 V 170.52744 l 54.45297,-2.8e-4 54.45297,-2.9e-4 v 24.03817 24.03817 l 4.12756,-6.1675 c 17.20527,-25.70855 42.06477,-42.24992 71.13948,-47.3358 16.89089,-2.95464 38.27612,-2.49075 55.17174,1.19677 34.9507,7.6281 61.56771,28.45724 77.89424,60.95614 8.12102,16.16536 14.20284,39.882 16.14224,62.9482 0.58082,6.90806 0.90538,46.47583 0.90538,110.37764 v 99.60944 h -54.6335 -54.63349 l -0.27793,-98.18354 c -0.27184,-96.02669 -0.31647,-98.34981 -2.03162,-105.7523 -5.99961,-25.89402 -18.57603,-40.70867 -38.63232,-45.50773 -7.60508,-1.81973 -21.71559,-1.82528 -28.91829,-0.0113 -16.98209,4.27673 -31.56621,16.56934 -40.27528,33.94708 -5.76953,11.51232 -5.45263,5.14942 -5.75944,115.64236 l -0.27729,99.86549 -54.42371,7e-5 -54.42371,7e-5 V 335.3579 Z"
     id="path4590"
     inkscape:connector-curvature="0"
     transform="scale(0.84007227)" /><path
     style="opacity:0;fill:#c8b7fe;fill-opacity:1;stroke-width:0.84097254"
     d="M 177.39296,335.35785 V 170.52744 l 54.45297,-2.8e-4 54.45297,-2.9e-4 v 24.03817 24.03817 l 4.12756,-6.1675 c 17.20527,-25.70855 42.06477,-42.24992 71.13948,-47.3358 16.89089,-2.95464 38.27612,-2.49075 55.17174,1.19677 34.9507,7.6281 61.56771,28.45724 77.89424,60.95614 8.12102,16.16536 14.20284,39.882 16.14224,62.9482 0.58082,6.90806 0.90538,46.47583 0.90538,110.37764 v 99.60944 h -54.6335 -54.63349 l -0.27793,-98.18354 c -0.27184,-96.02669 -0.31647,-98.34981 -2.03162,-105.7523 -5.99961,-25.89402 -18.57603,-40.70867 -38.63232,-45.50773 -7.60508,-1.81973 -21.71559,-1.82528 -28.91829,-0.0113 -16.98209,4.27673 -31.56621,16.56934 -40.27528,33.94708 -5.76953,11.51232 -5.45263,5.14942 -5.75944,115.64236 l -0.27729,99.86549 -54.42371,7e-5 -54.42371,7e-5 V 335.3579 Z"
     id="path4592"
     inkscape:connector-curvature="0"
     transform="scale(0.84007227)" /></svg>