<?xml version="1.0" encoding="UTF-8" standalone="no"?>
<svg
   xmlns:dc="http://purl.org/dc/elements/1.1/"
   xmlns:cc="http://creativecommons.org/ns#"
   xmlns:rdf="http://www.w3.org/1999/02/22-rdf-syntax-ns#"
   xmlns:svg="http://www.w3.org/2000/svg"
   xmlns="http://www.w3.org/2000/svg"
   xmlns:sodipodi="http://sodipodi.sourceforge.net/DTD/sodipodi-0.dtd"
   xmlns:inkscape="http://www.inkscape.org/namespaces/inkscape"
   width="24"
   height="24"
   viewBox="0 0 24 24"
   id="svg5362"
   version="1.1"
   inkscape:version="0.91 r13725"
   sodipodi:docname="soundcloud2.svg">
  <metadata
     id="metadata5370">
    <rdf:RDF>
      <cc:Work
         rdf:about="">
        <dc:format>image/svg+xml</dc:format>
        <dc:type
           rdf:resource="http://purl.org/dc/dcmitype/StillImage" />
        <dc:title></dc:title>
      </cc:Work>
    </rdf:RDF>
  </metadata>
  <defs
     id="defs5368">
    <filter
       style="color-interpolation-filters:sRGB;"
       inkscape:label="Colorize"
       id="filter5372">
      <feComposite
         in2="SourceGraphic"
         operator="arithmetic"
         k1="10"
         k2="10"
         result="composite1"
         id="feComposite5374" />
      <feColorMatrix
         in="composite1"
         values="1"
         type="saturate"
         result="colormatrix1"
         id="feColorMatrix5376" />
      <feFlood
         flood-opacity="1"
         flood-color="rgb(64,51,43)"
         result="flood1"
         id="feFlood5378" />
      <feBlend
         in="flood1"
         in2="colormatrix1"
         mode="normal"
         result="blend1"
         id="feBlend5380" />
      <feBlend
         in2="blend1"
         mode="screen"
         result="blend2"
         id="feBlend5382" />
      <feColorMatrix
         in="blend2"
         values="1"
         type="saturate"
         result="colormatrix2"
         id="feColorMatrix5384" />
      <feComposite
         in="colormatrix2"
         in2="SourceGraphic"
         operator="in"
         k2="1"
         result="composite2"
         id="feComposite5386" />
    </filter>
  </defs>
  <sodipodi:namedview
     pagecolor="#ffffff"
     bordercolor="#666666"
     borderopacity="1"
     objecttolerance="10"
     gridtolerance="10"
     guidetolerance="10"
     inkscape:pageopacity="0"
     inkscape:pageshadow="2"
     inkscape:window-width="640"
     inkscape:window-height="480"
     id="namedview5366"
     showgrid="false"
     inkscape:zoom="9.8333333"
     inkscape:cx="12"
     inkscape:cy="12"
     inkscape:window-x="482"
     inkscape:window-y="1109"
     inkscape:window-maximized="0"
     inkscape:current-layer="svg5362" />
  <path
     d="M19 0h-14c-2.761 0-5 2.239-5 5v14c0 2.761 2.239 5 5 5h14c2.762 0 5-2.239 5-5v-14c0-2.761-2.238-5-5-5zm-14.333 15.524c-.405-.365-.667-.903-.667-1.512 0-.608.262-1.146.667-1.512v3.024zm1.333.476c-.243 0-.369.003-.667-.092v-3.792c.316-.101.465-.097.667-.081v3.965zm1.333 0h-.666v-3.778l.206.121c.091-.375.253-.718.461-1.023v4.68zm1.334 0h-.667v-5.378c.206-.154.426-.286.667-.377v5.755zm1.333 0h-.667v-5.905c.251-.027.328-.046.667.006v5.899zm1.333 0h-.667v-5.7l.253.123c.119-.207.261-.395.414-.572v6.149zm6.727 0h-6.06v-6.748c.532-.366 1.16-.585 1.842-.585 1.809 0 3.275 1.494 3.41 3.386 1.303-.638 2.748.387 2.748 1.876 0 1.143-.869 2.071-1.94 2.071z"
     id="path5364"
     style="filter:url(#filter5372)" />
</svg>
